# xmcd
#
# Track frame offsets: 
#        150
#        16437
#        34406
#        54814
#        65295
#        94370
#        108763
#        124930
#        151569
#        166247
#        185461
#
# Disc length: 2760 seconds
#
# Revision: 0
# Processed by: cddbd v1.4PL0 Copyright (c) Steve Scherf et al.
# Submitted via: ExactAudioCopy v0.95a3
#
DISCID=820ac60b
DTITLE=M' Train - Alligator
DYEAR=1900
DGENRE=
TTITLE0=The Evil In You
TTITLE1=World Of Lies
TTITLE2=Breakdown In Missisippi
TTITLE3=Pushrod Willie
TTITLE4=Alligator
TTITLE5=Turn On Red
TTITLE6=Sin And The City
TTITLE7=When The Colours Gone
TTITLE8=Dog Next Door
TTITLE9=Big Fat Hog
TTITLE10=To Hell And Back
EXTD=
EXTT0=
EXTT1=
EXTT2=
EXTT3=
EXTT4=
EXTT5=
EXTT6=
EXTT7=
EXTT8=
EXTT9=
EXTT10=
PLAYORDER=
